<svg xmlns="http://www.w3.org/2000/svg" width="23.128" height="23.124" viewBox="0 0 23.128 23.124">
  <g id="svgexport-6_51_" transform="translate(-3.5 -0.041)">
    <g id="Group_3693" transform="translate(3.5 0.041)">
      <path id="Path_6528" d="M22.945,9.261,20.066,7.169a.452.452,0,0,0-.492-.026L16.865,8.707H13.337a4.518,4.518,0,1,0-3.545,0H6.264L3.554,7.143a.452.452,0,0,0-.492.026L.184,9.261a.455.455,0,0,0,.04.757l3.66,2.113V22.714a.452.452,0,0,0,.452.452H18.793a.452.452,0,0,0,.452-.452V12.131l3.66-2.113a.455.455,0,0,0,.04-.757ZM4.787,17.744h6.325v2.711H4.787Zm1.6-8.133h4.345l.17.295a.759.759,0,0,0,.67.383.77.77,0,0,0,.663-.389l.167-.289h4.345l1.2,1.807H5.18ZM7.95,4.551A3.591,3.591,0,0,1,9.009,1.995a3.614,3.614,0,1,1,3.4,6.07.452.452,0,0,0-.286.214l-.56.971L11,8.279a.452.452,0,0,0-.286-.214A3.616,3.616,0,0,1,7.95,4.551ZM3.357,8.073,5.5,9.31l-1.3,1.957L1.278,9.583Zm1.43,14.189v-.9h6.777a.452.452,0,0,0,.452-.452V17.292a.452.452,0,0,0-.452-.452H4.787V12.322H18.342v9.94ZM18.934,11.267l-1.3-1.957,2.143-1.237,2.079,1.511Z" transform="translate(0 -0.041)"/>
      <path id="Path_6529" d="M130.071,411.847h-3.615a.452.452,0,0,0,0,.9h3.615A.452.452,0,0,0,130.071,411.847Z" transform="translate(-120.314 -393.241)"/>
      <path id="Path_6530" d="M217.36,63.068a.452.452,0,0,0,.9,0v-.9h.9a.452.452,0,0,0,0-.9h-.9v-.9a.452.452,0,0,0-.9,0v.9h-.9a.452.452,0,0,0,0,.9h.9Z" transform="translate(-206.248 -57.203)"/>
    </g>
  </g>
</svg>
