<svg xmlns="http://www.w3.org/2000/svg" width="19.971" height="23.877" viewBox="0 0 19.971 23.877">
  <g id="collapse-categories" transform="translate(-5.153 -2.25)">
    <path id="Path_6547" d="M15.75,28.125H27.689v1.706H15.75Z" transform="translate(-2.564 -6.261)"/>
    <path id="Path_6548" d="M7.361,28.161l-2.2,2.2,1.2,1.211,3.411-3.411L6.364,24.75l-1.211,1.2Z" transform="translate(0 -5.445)"/>
    <path id="Path_6549" d="M15.75,16.875H27.689v1.706H15.75Z" transform="translate(-2.564 -3.539)"/>
    <path id="Path_6550" d="M7.361,16.911l-2.2,2.2,1.2,1.211,3.411-3.411L6.364,13.5,5.153,14.7Z" transform="translate(0 -2.722)"/>
    <path id="Path_6551" d="M15.75,5.625H27.689V7.331H15.75Z" transform="translate(-2.564 -0.817)"/>
    <path id="Path_6552" d="M7.361,5.661l-2.2,2.2,1.2,1.211L9.775,5.661,6.364,2.25l-1.211,1.2Z"/>
  </g>
</svg>
