<svg xmlns="http://www.w3.org/2000/svg" width="56" height="37" viewBox="0 0 56 37">
  <g id="Group_3721" data-name="Group 3721" transform="translate(-75 -765)">
    <text id="طلبيات_مكتملة" data-name="طلبيات مكتملة" transform="translate(75 800)" fill="#182b4c" font-size="9" font-family="SegoeUI, Segoe UI"><tspan x="0" y="0">طلبيات مكتملة</tspan></text>
    <g id="svgexport-6_56_" data-name="svgexport-6 (56)" transform="translate(89.526 756.716)">
      <g id="Layer_2" transform="translate(3.284 3.284)">
        <g id="Group_3727" data-name="Group 3727">
          <g id="Group_3726" data-name="Group 3726" transform="translate(7.258 9.712)">
            <path id="Path_6542" data-name="Path 6542" d="M14.606,19.792a.756.756,0,0,1-.573-.264L12.015,17.2a.762.762,0,0,1,1.151-1l1.359,1.567,1.78-2.707a.761.761,0,1,1,1.273.837l-2.332,3.549a.766.766,0,0,1-.583.34.227.227,0,0,1-.056.005Z" transform="translate(-11.831 -14.72)"/>
          </g>
          <path id="Path_6543" data-name="Path 6543" d="M22.9,3.284H4.044a.759.759,0,0,0-.76.76V22.9a.759.759,0,0,0,.76.76H22.9a.759.759,0,0,0,.76-.76V4.044A.759.759,0,0,0,22.9,3.284ZM15.35,4.8V7.8H11.6V4.8Zm6.794,17.339H4.8V4.8h5.273V8.556a.759.759,0,0,0,.76.76H16.11a.759.759,0,0,0,.76-.76V4.8h5.273Z" transform="translate(-3.284 1.716)" fill="#182b4c"/>
        </g>
      </g>
    </g>
  </g>
</svg>
