<svg xmlns="http://www.w3.org/2000/svg" width="18.253" height="18.254" viewBox="0 0 18.253 18.254">
  <g id="svgexport-6_53_" transform="translate(42.982 15)">
    <g id="Group_3720" transform="translate(-42.982 -15)">
      <g id="Group_3719" transform="translate(0)">
        <g id="Group_3718">
          <path id="Path_6537" d="M15.642,0H2.647A2.629,2.629,0,0,0,.018,2.629V15.624a2.629,2.629,0,0,0,2.629,2.629H6.863a.761.761,0,0,0,0-1.521H2.647a1.108,1.108,0,0,1-1.108-1.108V2.629A1.108,1.108,0,0,1,2.647,1.521H6.1v3.8a.761.761,0,0,0,1.182.633l1.86-1.24L11,5.957a.761.761,0,0,0,1.182-.633v-3.8h3.455A1.108,1.108,0,0,1,16.75,2.629V5.324a.761.761,0,0,0,1.521,0V2.629A2.629,2.629,0,0,0,15.642,0ZM10.666,3.9l-1.1-.733a.761.761,0,0,0-.844,0l-1.1.733V1.521h3.042Z" transform="translate(-0.018)"/>
          <path id="Path_6538" d="M284.488,277.722a1.333,1.333,0,0,0-1.886,0l-4.385,4.386a.76.76,0,0,0-.193.327l-.659,2.292a.761.761,0,0,0,.941.941l2.291-.66a.761.761,0,0,0,.327-.193l4.386-4.385a1.333,1.333,0,0,0,0-1.886Zm-4.5,5.879-.78.225.225-.781,4.114-4.114.557.557Z" transform="translate(-267.447 -267.445)"/>
        </g>
      </g>
    </g>
  </g>
</svg>
